trial_4_IK.mot
nRows=6
nColumns=42

name trial_4_IK.mot
datacolumns 42
datarows 6
range 6.6000000000 6.6500000000
endheader
time	pelvis_tilt	pelvis_list	pelvis_rotation	pelvis_tx	pelvis_ty	pelvis_tz	hip_flexion_r	hip_adduction_r	hip_rotation_r	knee_angle_r	knee_vv_r	knee_rot_r	ankle_angle_r	subtalar_angle_r	mtp_angle_r	hip_flexion_l	hip_adduction_l	hip_rotation_l	knee_angle_l	knee_vv_l	knee_rot_l	ankle_angle_l	subtalar_angle_l	mtp_angle_l	lumbar_extension	lumbar_bending	lumbar_rotation	arm_flex_r	arm_add_r	arm_rot_r	elbow_flex_r	pro_sup_r	wrist_flex_r	wrist_dev_r	arm_flex_l	arm_add_l	arm_rot_l	elbow_flex_l	pro_sup_l	wrist_flex_l	wrist_dev_l
        6.6000000000	        8.9203214200	        2.9863563700	        0.9207746800	        0.0691727600	        0.9001048200	       -0.0507775000	       13.1877133500	       -3.6553566500	       -2.1083283000	       -6.8360197300	        0.0000000000	        0.0000000000	        1.9949901900	        0.0000000000	        0.0000000000	      -20.6479890600	        6.3958233400	       -0.0782209200	       -6.2775226800	        0.0000000000	        0.0000000000	       10.4940908800	        0.0000000000	        0.0000000000	      -23.4353053700	       -1.8396022600	       -5.0838760100	       -6.8536466000	       -9.0075381600	       37.1305778500	        2.1443949900	       86.5166270600	        0.0000000000	        0.0000000000	       22.5641454800	      -20.8582874300	       21.8969472600	       34.2080201200	       85.9436692700	        0.0000000000	        0.0000000000	
        6.6100000000	        9.1428635800	        2.9942622100	        1.0188386000	        0.0700257400	        0.8992306400	       -0.0493606800	       13.0098531400	       -3.5180774100	       -2.5635876400	       -8.0623227900	        0.0000000000	        0.0000000000	        1.4928688800	        0.0000000000	        0.0000000000	      -21.2594411000	        6.2051526000	       -0.0775264600	       -6.7892911900	        0.0000000000	        0.0000000000	       10.5273392300	        0.0000000000	        0.0000000000	      -23.6017250700	       -1.8756420100	       -4.9643532100	       -6.3287103300	       -9.1926380300	       37.2493671300	        2.3210036000	       86.5166270600	        0.0000000000	        0.0000000000	       22.0649125500	      -20.6193924200	       22.2469697800	       33.2833273000	       85.9436692700	        0.0000000000	        0.0000000000	
        6.6200000000	        9.3953235300	        2.9418860100	        1.1036237600	        0.0709454800	        0.8984567100	       -0.0478319200	       12.7884924100	       -3.3096800000	       -2.8949194900	       -9.1669097200	        0.0000000000	        0.0000000000	        0.7584856100	        0.0000000000	        0.0000000000	      -21.8657681500	        5.9407301900	       -0.1619434500	       -7.3694704600	        0.0000000000	        0.0000000000	       10.4890926900	        0.0000000000	        0.0000000000	      -23.7885766700	       -1.8504094800	       -4.8006480000	       -5.7605693200	       -9.3951916500	       37.3469836300	        2.5244465300	       86.5166270600	        0.0000000000	        0.0000000000	       21.5551661400	      -20.3479027600	       22.6599448200	       32.2195196700	       85.9436692700	        0.0000000000	        0.0000000000	
        6.6300000000	        9.6921978000	        2.7969653800	        1.1729504700	        0.0719284900	        0.8979312100	       -0.0461583100	       12.5261928100	       -3.0084147600	       -3.0860825300	      -10.0906184500	        0.0000000000	        0.0000000000	       -0.1663447000	        0.0000000000	        0.0000000000	      -22.4610199300	        5.5753861900	       -0.3328707400	       -8.0399944100	        0.0000000000	        0.0000000000	       10.3775422800	        0.0000000000	        0.0000000000	      -24.0155794900	       -1.7345147400	       -4.5785314100	       -5.1366662300	       -9.6177357300	       37.4429830900	        2.7513311200	       86.5166270600	        0.0000000000	        0.0000000000	       21.0400851600	      -20.0375383300	       23.1348246100	       31.0170861500	       85.9436692700	        0.0000000000	        0.0000000000	
        6.6400000000	       10.0287761700	        2.5436042700	        1.2218453000	        0.0729303800	        0.8977498700	       -0.0443361200	       12.1978485800	       -2.6034989500	       -3.1455030300	      -10.8606064000	        0.0000000000	        0.0000000000	       -1.1870666300	        0.0000000000	        0.0000000000	      -23.0326956600	        5.1031786300	       -0.5901634400	       -8.8170054600	        0.0000000000	        0.0000000000	       10.1860896700	        0.0000000000	        0.0000000000	      -24.2900688000	       -1.5166718600	       -4.2894065100	       -4.4504858500	       -9.8606249000	       37.5602031400	        2.9956459600	       86.5166270600	        0.0000000000	        0.0000000000	       20.5141892700	      -19.6850599100	       23.6754615900	       29.6806281300	       85.9436692700	        0.0000000000	        0.0000000000	
        6.6500000000	       10.3898055800	        2.1920234300	        1.2423887300	        0.0739325900	        0.8979475700	       -0.0424011200	       11.7745156400	       -2.1007313600	       -3.1054692500	      -11.5609087100	        0.0000000000	        0.0000000000	       -2.1740115400	        0.0000000000	        0.0000000000	      -23.5636497900	        4.5421572600	       -0.9346021500	       -9.7161032000	        0.0000000000	        0.0000000000	        9.8988948300	        0.0000000000	        0.0000000000	      -24.6015433800	       -1.2118695100	       -3.9328282400	       -3.7048901400	      -10.1211987300	       37.7198937100	        3.2489436400	       86.5166270600	        0.0000000000	        0.0000000000	       19.9622982600	      -19.2923867700	       24.2920059100	       28.2183341500	       85.9436692700	        0.0000000000	        0.0000000000	
